<svg xmlns="http://www.w3.org/2000/svg" viewBox="0 0 128 128">
  <defs>
    <linearGradient id="g" x1="0" x2="1" y1="0" y2="1">
      <stop offset="0" stop-color="#6366f1" />
      <stop offset="1" stop-color="#22d3ee" />
    </linearGradient>
  </defs>
  <rect width="128" height="128" rx="28" fill="url(#g)" />
  <path
    fill="#fff"
    d="M36 96c0-28 16-64 52-64 8 0 14 2 20 5-6-16-20-25-39-25C44 12 24 40 24 76c0 14 4 26 12 36z"
    opacity="0.8"
  />
  <path
    fill="#f8fafc"
    d="M64 96c0-18 10-40 32-40 5 0 9 1 12 3-4-10-12-16-24-16-20 0-36 20-36 44 0 10 3 18 8 25z"
  />
</svg>
